<?xml version="1.0" standalone="no"?>
<!DOCTYPE svg PUBLIC "-//W3C//DTD SVG 20010904//EN"
 "http://www.w3.org/TR/2001/REC-SVG-20010904/DTD/svg10.dtd">
<svg version="1.0" xmlns="http://www.w3.org/2000/svg"
 width="1492.000000pt" height="1492.000000pt" viewBox="0 0 1492.000000 1492.000000"
 preserveAspectRatio="xMidYMid meet">

<g transform="translate(0.000000,1492.000000) scale(0.100000,-0.100000)"
fill="#000000" stroke="none">
<path d="M7670 11687 c-3 -3 -58 -8 -123 -11 -66 -4 -124 -9 -130 -11 -7 -2
-43 -6 -82 -10 -38 -3 -124 -12 -190 -21 -66 -8 -174 -21 -240 -29 -66 -8
-235 -32 -375 -54 -307 -49 -338 -55 -555 -96 -44 -8 -114 -20 -155 -26 -41
-6 -77 -13 -79 -15 -3 -3 1 -26 8 -51 28 -107 219 -282 346 -318 84 -23 166
-8 404 75 202 70 616 174 856 215 22 4 49 9 60 11 184 33 825 70 825 47 0 -5
-17 -26 -38 -48 -71 -76 -338 -384 -402 -465 -19 -24 -47 -58 -61 -75 -34 -39
-191 -234 -294 -364 -43 -56 -79 -101 -80 -101 0 0 -66 9 -145 20 -329 44
-623 55 -925 34 -267 -18 -429 -43 -640 -99 -171 -45 -236 -67 -380 -128 -366
-156 -575 -337 -718 -622 -72 -144 -108 -325 -89 -443 28 -169 130 -323 286
-431 89 -61 239 -143 313 -171 l55 -21 -5 23 c-16 63 -29 293 -24 411 18 420
228 814 506 948 76 37 154 63 236 79 33 6 78 16 100 20 77 17 380 9 545 -15
233 -34 490 -87 490 -102 0 -7 -60 -88 -211 -288 -33 -44 -94 -125 -136 -180
-41 -55 -107 -142 -146 -194 -98 -128 -204 -271 -224 -301 -10 -14 -31 -41
-48 -61 -16 -20 -60 -79 -97 -130 -37 -52 -103 -143 -145 -202 -43 -60 -96
-132 -118 -162 -48 -64 -180 -246 -293 -404 -46 -64 -90 -125 -97 -135 -13
-18 -19 -18 -97 -7 -46 7 -114 17 -153 22 -38 5 -83 12 -100 15 -78 13 -446
16 -544 5 -339 -40 -548 -152 -671 -361 -17 -29 -29 -54 -27 -57 2 -2 44 -8
93 -13 102 -12 691 -100 834 -125 14 -3 75 -12 135 -22 61 -9 114 -20 118 -23
5 -4 -6 -27 -23 -51 -17 -24 -58 -84 -92 -134 -34 -49 -107 -142 -163 -205
-142 -161 -423 -500 -557 -670 -15 -19 -67 -85 -115 -146 -48 -61 -99 -126
-113 -144 -72 -95 -141 -186 -149 -196 -19 -24 -241 -363 -241 -369 0 -4 -8
-19 -19 -33 -31 -44 -146 -270 -184 -362 -81 -197 -111 -356 -96 -501 14 -130
88 -239 250 -367 106 -83 373 -192 483 -195 l49 -2 103 160 c57 88 104 165
104 172 0 6 3 13 8 15 8 3 57 67 63 83 4 11 70 118 127 207 210 326 602 966
602 981 0 3 13 25 29 49 16 24 42 68 58 98 17 30 67 116 113 190 46 74 91 149
100 165 9 17 70 118 135 225 127 208 315 530 315 537 0 2 14 24 30 48 17 24
30 46 30 49 0 8 110 188 125 204 10 11 22 11 71 -2 32 -8 95 -22 139 -31 44
-9 116 -24 160 -35 44 -10 139 -30 210 -44 72 -14 175 -35 230 -46 480 -97
738 -118 922 -75 71 17 234 90 316 143 l49 31 -89 26 c-48 14 -108 32 -133 39
-25 8 -79 24 -120 36 -201 59 -837 273 -848 285 -7 8 6 6 168 -19 52 -8 113
-17 135 -20 64 -7 556 -86 600 -96 22 -5 78 -16 125 -25 409 -78 943 -213
1255 -319 262 -88 606 -228 710 -288 11 -6 49 -27 85 -46 161 -87 315 -195
442 -310 329 -298 447 -590 402 -992 -50 -453 -346 -874 -861 -1227 -491 -337
-1229 -620 -1958 -752 -202 -36 -229 -40 -425 -65 -581 -75 -1103 -96 -1750
-71 -181 7 -262 12 -530 35 -354 30 -930 111 -1220 170 -52 11 -144 29 -205
40 -374 68 -515 106 -800 216 -203 77 -335 104 -348 70 -16 -41 -29 -191 -25
-284 16 -363 280 -615 838 -802 135 -45 401 -116 505 -134 17 -3 62 -12 100
-21 70 -15 501 -79 605 -89 30 -3 80 -8 110 -11 30 -3 84 -8 120 -11 36 -2 85
-6 110 -9 290 -28 1065 -40 1385 -21 50 3 173 10 275 16 158 9 331 23 545 46
97 10 281 34 375 49 52 9 138 22 190 31 432 68 1125 243 1455 369 674 257
1038 461 1420 795 407 358 629 725 724 1200 30 145 33 181 32 354 -1 258 -40
446 -132 631 -215 430 -619 767 -1299 1082 -252 117 -729 278 -1030 348 -41 9
-104 25 -140 35 -36 10 -132 32 -215 50 -172 37 -179 39 -174 45 3 2 137 5
299 6 162 1 349 6 415 10 332 23 596 50 735 75 14 2 54 9 90 14 315 50 696
157 990 280 171 71 408 208 560 325 129 99 281 253 371 375 89 120 196 345
248 520 65 217 87 384 84 630 -1 166 -24 297 -76 440 -107 292 -380 615 -702
831 -100 67 -96 65 -235 143 -192 108 -322 166 -635 286 -171 65 -826 232
-1120 285 -173 31 -577 85 -790 105 -60 6 -130 13 -155 15 -25 3 -81 7 -125
11 -100 7 -799 17 -805 11z m1500 -336 c41 -6 89 -13 105 -16 17 -3 95 -17
175 -31 379 -66 811 -198 1095 -334 432 -207 756 -536 854 -865 55 -185 66
-405 31 -642 -96 -654 -433 -1090 -1097 -1422 -369 -185 -786 -297 -1393 -376
-106 -13 -191 -22 -420 -42 -154 -13 -959 -6 -1248 11 -253 15 -580 43 -762
66 -41 5 -79 9 -83 10 -7 0 69 115 126 190 28 37 210 295 265 375 27 39 113
158 193 265 175 237 163 221 274 365 50 65 99 129 110 144 16 22 105 134 158
201 33 40 158 194 215 263 61 74 66 78 96 71 94 -21 704 -235 811 -285 57 -26
276 -104 390 -138 214 -64 229 -66 440 -65 132 1 192 6 268 23 110 23 250 68
333 106 30 14 57 25 59 25 29 0 602 296 593 306 -2 2 -64 4 -138 5 -230 3
-493 28 -715 68 -93 17 -383 87 -420 102 -11 4 -55 17 -97 29 -93 25 -408 129
-608 200 -80 28 -201 69 -270 91 -69 22 -181 57 -250 79 -69 22 -144 44 -168
49 -24 5 -46 11 -49 14 -5 6 11 39 29 59 7 7 53 67 103 133 144 194 461 588
589 736 17 19 54 62 81 94 28 33 70 81 95 106 44 45 47 46 100 43 30 -1 89 -7
130 -13z"/>
</g>
</svg>
